<svg id="Layer_1" data-name="Layer 1" xmlns="http://www.w3.org/2000/svg" viewBox="0 0 510.13 177.78"><path d="M70.19,86.81q13.45,2.46,21.65,8.06t11.42,12.38a33,33,0,0,1,3.22,14.36q0,20.87-15.35,26.84a85.86,85.86,0,0,1-31.37,6q-1.51,0-5.49-.15t-8-.23l-6.16-.15c-1.42,0-3,0-4.79,0q-5.69,0-18.48.76V151a38.85,38.85,0,0,0,6.07-1,9.21,9.21,0,0,0,4-2.23,7.53,7.53,0,0,0,2.18-4.36q.95-4.06,1.47-17t.71-26.2q.18-13.32.19-20.62,0-7.86-.19-15.25t-1-14.5q-.79-7.11-2.13-9.48a7.77,7.77,0,0,0-4-3.79A29.4,29.4,0,0,0,17,34.83v-3.6Q27.07,32,34.74,32q1.8,0,13.18-.76,12.12-.86,12.79-.85a40.29,40.29,0,0,1,16.77,3.41A28.53,28.53,0,0,1,89.66,44a27.37,27.37,0,0,1,4.6,15.77,24.78,24.78,0,0,1-5.88,16.52Q82.5,83.21,70.19,86.81ZM43.46,74.44V86.1c1.39-.13,3-.19,4.84-.19a84.09,84.09,0,0,0,15-1.52,21.79,21.79,0,0,0,11.47-6.54q5-5.2,5-16a27.85,27.85,0,0,0-3.56-14.5,23.72,23.72,0,0,0-9.52-9.1,27.21,27.21,0,0,0-12.79-3.13c-4.36,0-7,.51-8,1.52q-1.23,1-1.85,14.45T43.46,74.44Zm0,16.11V127.7c0,6.45.13,11,.38,13.65a12,12,0,0,0,1.8,5.92,6,6,0,0,0,4.27,2.32A86.79,86.79,0,0,0,60,150a46,46,0,0,0,14.83-2.41,26.15,26.15,0,0,0,12.09-8.49q4.92-6.06,4.92-16.3a33.68,33.68,0,0,0-2.18-11.65,31.22,31.22,0,0,0-6.53-10.66,32.56,32.56,0,0,0-11.52-7.68,42.93,42.93,0,0,0-16.63-3c-1.52,0-3.33.07-5.45.19S45.36,90.3,43.46,90.55Z" transform="translate(-16.83 -30.38)"/><path d="M113,96.52V92.59l21.12-11.7,1.91-.76c.88,0,1.33.57,1.33,1.7l-1.19,16.3Q135,117.47,135,122q0,10.71,2.83,17.76t13.24,7.06a23.16,23.16,0,0,0,6.85-1.09,61.34,61.34,0,0,0,8.23-3.31c3.11-1.49,5.56-2.67,7.32-3.56a91,91,0,0,1,.29-9.25l.57-19.34c.19-5.86,0-10-.57-12.42s-1.66-4-3.27-4.67-4.28-1.1-8-1.23l-.19-3.64,25.3-5.93c-.31,5.69-.65,11.11-1,16.26s-.67,10.66-1,16.53-.43,10.24-.43,13.08q0,13.85,1.8,19.33a34.68,34.68,0,0,0,10.62-2.27v4.26q-10.76,2.94-21.78,7a78.86,78.86,0,0,1-2.58-13.46Q150.12,155,141.13,155q-6,0-12.1-5.77t-5.49-22.33l.76-21.29a39,39,0,0,0-.43-8.65,3.37,3.37,0,0,0-3.65-3C119.09,94,116.68,94.82,113,96.52Z" transform="translate(-16.83 -30.38)"/><path d="M202.2,87.71V84.77a113.09,113.09,0,0,0,13,.57,165.81,165.81,0,0,0,19.43-1.14l-.29,3.51a19.37,19.37,0,0,0-5.59,1.75c-1.14.67-1.7,2-1.7,3.84q0,4.55,4.08,19.71t9.7,30.14L247.06,132q4.06-7,9.64-19.53t5.58-17.15q0-6.63-13.17-8.24l1.32-3q11.28,1.14,19.62,1.14a57.78,57.78,0,0,0,9.38-.57l-.19,3.13a9.74,9.74,0,0,0-4.59,1.94A16.37,16.37,0,0,0,270.86,94a79.09,79.09,0,0,0-3.84,7.06l-10.31,21.32q-.19.48-7.2,14-10.11,19.91-15.16,31.65a193.92,193.92,0,0,0-7.4,19.52q-2.35,7.77-5.42,20.57H201.34v-3.22a25.07,25.07,0,0,0,10.06-4.41,28.67,28.67,0,0,0,6.83-8.15,153.57,153.57,0,0,0,7.59-15.59l7.4-16.49q-5.41-20.37-10-35.82a244,244,0,0,0-8.64-25.11A27.84,27.84,0,0,0,210.77,92a9.16,9.16,0,0,0-3.6-3A34.59,34.59,0,0,0,202.2,87.71Z" transform="translate(-16.83 -30.38)"/><path d="M336.77,86.81q13.46,2.46,21.65,8.06t11.42,12.38a33,33,0,0,1,3.22,14.36q0,20.87-15.35,26.84a85.9,85.9,0,0,1-31.37,6c-1,0-2.84-.05-5.5-.15s-5.32-.17-8-.23l-6.16-.15c-1.42,0-3,0-4.79,0q-5.68,0-18.48.76V151a38.85,38.85,0,0,0,6.07-1,9.21,9.21,0,0,0,4-2.23,7.59,7.59,0,0,0,2.18-4.36q.94-4.06,1.47-17t.71-26.2Q298,87,298,79.65q0-7.86-.19-15.25t-1-14.5q-.81-7.11-2.13-9.48a7.77,7.77,0,0,0-4-3.79,29.4,29.4,0,0,0-7.11-1.8v-3.6q10,.76,17.72.76,1.8,0,13.18-.76,12.12-.86,12.79-.85a40.29,40.29,0,0,1,16.77,3.41A28.53,28.53,0,0,1,356.24,44a27.45,27.45,0,0,1,4.6,15.77A24.78,24.78,0,0,1,355,76.25Q349.08,83.21,336.77,86.81ZM310,74.44V86.1c1.39-.13,3-.19,4.83-.19a84.11,84.11,0,0,0,15-1.52,21.8,21.8,0,0,0,11.46-6.54q5-5.2,5-16a27.85,27.85,0,0,0-3.56-14.5,23.79,23.79,0,0,0-9.52-9.1,27.24,27.24,0,0,0-12.79-3.13c-4.36,0-7,.51-8,1.52q-1.25,1-1.85,14.45T310,74.44Zm0,16.11V127.7c0,6.45.13,11,.38,13.65a12,12,0,0,0,1.8,5.92,6,6,0,0,0,4.27,2.32,86.79,86.79,0,0,0,10,.38,46,46,0,0,0,14.83-2.41,26.08,26.08,0,0,0,12.08-8.49q4.94-6.06,4.93-16.3a33.68,33.68,0,0,0-2.18-11.65,31.09,31.09,0,0,0-6.54-10.66,32.43,32.43,0,0,0-11.51-7.68,43,43,0,0,0-16.63-3c-1.52,0-3.33.07-5.45.19S311.94,90.3,310,90.55Z" transform="translate(-16.83 -30.38)"/><path d="M401,97.94l-11.66,5.22a21.07,21.07,0,0,1-.76-4.46q0-4.83,5.93-9a53.54,53.54,0,0,1,13.36-6.68q7.44-2.56,10.38-2.56c1.7,0,3.82.76,6.34,2.27a31.58,31.58,0,0,1,6.07,4.55,17.89,17.89,0,0,1,3.08,3.74,20.68,20.68,0,0,1,1.94,5.83,49.66,49.66,0,0,1,.86,10.14q0,1.8-.48,12.7l-.38,7.11q-.37,5.11-.38,8.15a36.46,36.46,0,0,0,1.05,8.34q.94,4.54,4.26,4.55,3.69,0,9.86-2.75V149l-13.93,5.6a32.76,32.76,0,0,1-4.74,1.42c-1.46,0-2.89-1-4.32-2.89a24.57,24.57,0,0,1-3.45-6.87Q406.52,156,397.13,156q-5.78,0-8.72-3.37t-2.93-10.09q0-6.45,1.56-9.57a11.07,11.07,0,0,1,5.07-4.93,63.4,63.4,0,0,1,15.07-5.35q7.95-1.76,16.68-3l.47-11.66V105q0-8.05-4.6-12.75A14.57,14.57,0,0,0,409,87.52a12.06,12.06,0,0,0-5.92,1.66,5.13,5.13,0,0,0-3,4.69A12.57,12.57,0,0,0,401,97.94Zm22.46,44.83q-.28-3.14.57-17.82-12.46-.86-20,3t-7.55,9.76a15.2,15.2,0,0,0,2.31,8.05,7.15,7.15,0,0,0,6.38,3.79Q409.69,149.59,423.48,142.77Z" transform="translate(-16.83 -30.38)"/><path d="M449.73,87.71V84.77a113.09,113.09,0,0,0,13,.57,165.81,165.81,0,0,0,19.43-1.14l-.29,3.51a19.37,19.37,0,0,0-5.59,1.75c-1.13.67-1.7,2-1.7,3.84q0,4.55,4.08,19.71t9.71,30.14L494.59,132q4.07-7,9.64-19.53t5.58-17.15q0-6.63-13.17-8.24L498,84q11.28,1.14,19.62,1.14a57.78,57.78,0,0,0,9.38-.57l-.19,3.13a9.79,9.79,0,0,0-4.59,1.94A16.37,16.37,0,0,0,518.39,94a79.09,79.09,0,0,0-3.84,7.06l-10.31,21.32q-.19.48-7.19,14-10.12,19.91-15.17,31.65a196.4,196.4,0,0,0-7.4,19.52q-2.36,7.77-5.42,20.57H448.87v-3.22a25.07,25.07,0,0,0,10.06-4.41,28.67,28.67,0,0,0,6.83-8.15,153.57,153.57,0,0,0,7.59-15.59l7.41-16.49q-5.43-20.37-10-35.82a241.59,241.59,0,0,0-8.64-25.11A27.84,27.84,0,0,0,458.3,92a9.16,9.16,0,0,0-3.6-3A34.59,34.59,0,0,0,449.73,87.71Z" transform="translate(-16.83 -30.38)"/></svg>